<?xml version="1.0" encoding="utf-8"?>
<!-- Generator: Adobe Illustrator 23.0.0, SVG Export Plug-In . SVG Version: 6.00 Build 0)  -->
<svg version="1.1" id="Layer_1" xmlns="http://www.w3.org/2000/svg" xmlns:xlink="http://www.w3.org/1999/xlink" x="0px" y="0px"
	 viewBox="0 0 32 32" style="enable-background:new 0 0 32 32;" xml:space="preserve">
<style type="text/css">
	.st0{fill:#F4A025;}
</style>
<path class="st0" d="M16,0C9.7,0,4.57,5.13,4.57,11.43v3.8c0,3.84,1.91,7.95,5.53,11.87c2.69,2.92,5.35,4.7,5.46,4.77
	C15.69,31.96,15.85,32,16,32c0.16,0,0.31-0.04,0.45-0.13c0.11-0.07,2.77-1.85,5.46-4.77c3.62-3.92,5.53-8.02,5.53-11.87v-3.8
	C27.43,5.13,22.3,0,16,0z M16,1.61c5.42,0,9.82,4.41,9.82,9.83c0,5.42-4.41,9.83-9.82,9.83c-2.99,0-5.48-2.19-5.95-5.05
	c1.42,1.76,3.6,2.86,5.95,2.86c3.38,0,6.4-2.27,7.34-5.52c0-0.01,0-0.02,0-0.02l0,0.01c0.19-0.68,0.29-1.39,0.29-2.1
	c0-4.21-3.43-7.64-7.64-7.64c-3.94,0-7.42,2.01-9.48,5.05C7.66,4.68,11.48,1.61,16,1.61z M10.28,13.33C11.09,10.89,13.41,9.2,16,9.2
	c2.59,0,4.91,1.69,5.72,4.13c-0.81,2.44-3.13,4.13-5.72,4.13C13.41,17.46,11.09,15.77,10.28,13.33z M16,30.21
	c-1.97-1.44-9.83-7.64-9.83-14.98c0-5.42,4.41-9.83,9.83-9.83c2.99,0,5.48,2.19,5.95,5.04l0,0.01c-1.42-1.76-3.6-2.86-5.95-2.86
	c-3.38,0-6.4,2.27-7.34,5.52c0,0,0,0,0,0l0,0c-0.2,0.69-0.3,1.4-0.3,2.12c0,4.21,3.43,7.64,7.64,7.64c3.97,0,7.47-2.03,9.52-5.12
	C24.07,23.95,17.74,28.94,16,30.21z"/>
</svg>
